<svg width="52" height="52" viewBox="0 0 52 52" fill="none" xmlns="http://www.w3.org/2000/svg">
<path d="M24.4609 0.295898C25.6393 -0.098789 26.3607 -0.0987894 27.5391 0.295898C30.4141 1.25886 30.2898 7.35242 29.4014 13.3643C31.6507 7.71858 34.6015 2.38577 37.5713 2.99609C38.7885 3.24633 39.4123 3.60832 40.2334 4.54102C42.2083 6.78465 39.1585 11.8777 35.4443 16.5762C40.1509 12.8723 45.2508 9.83359 47.4902 11.8135C48.4212 12.6366 48.7817 13.2616 49.0293 14.4795C49.629 17.4305 44.3664 20.3499 38.7588 22.5811C44.7306 21.7091 50.7479 21.6056 51.7041 24.4609C52.0988 25.6393 52.0988 26.3607 51.7041 27.5391C50.7479 30.3944 44.7306 30.2909 38.7588 29.4189C44.3664 31.6501 49.629 34.5695 49.0293 37.5205C48.7817 38.7384 48.4212 39.3634 47.4902 40.1865C45.251 42.1662 40.1518 39.1276 35.4453 35.4238C39.1595 40.1221 42.2081 45.2154 40.2334 47.459C39.4123 48.3917 38.7884 48.7537 37.5713 49.0039C34.6013 49.6142 31.6507 44.2806 29.4014 38.6348C30.2898 44.6469 30.4141 50.7411 27.5391 51.7041C26.3607 52.0988 25.6393 52.0988 24.4609 51.7041C21.5859 50.7413 21.7102 44.6476 22.5986 38.6357C20.3493 44.2812 17.3987 49.6142 14.4287 49.0039C13.2115 48.7537 12.5877 48.3917 11.7666 47.459C9.79167 45.2154 12.8413 40.1221 16.5557 35.4238C11.849 39.1277 6.74896 42.1664 4.50977 40.1865C3.57858 39.3634 3.21828 38.7384 2.9707 37.5205C2.3712 34.5695 7.63365 31.6501 13.2412 29.4189C7.26948 30.2908 1.25211 30.3946 0.295898 27.5391C-0.0987894 26.3607 -0.098789 25.6393 0.295898 24.4609C1.25211 21.6054 7.2693 21.7092 13.2412 22.5811C7.63365 20.35 2.37085 17.4305 2.9707 14.4795C3.2181 13.2615 3.57857 12.6366 4.50977 11.8135C6.74897 9.83359 11.849 12.8723 16.5557 16.5762C12.8415 11.8779 9.79167 6.78447 11.7666 4.54102C12.5877 3.60821 13.2115 3.24632 14.4287 2.99609C17.3985 2.38559 20.3493 7.71871 22.5986 13.3643C21.7102 7.35236 21.5859 1.25869 24.4609 0.295898Z" fill="#F63D00"/>
<path d="M24.4609 0.295898C25.6393 -0.098789 26.3607 -0.0987894 27.5391 0.295898C30.4141 1.25886 30.2898 7.35242 29.4014 13.3643C31.6507 7.71858 34.6015 2.38577 37.5713 2.99609C38.7885 3.24633 39.4123 3.60832 40.2334 4.54102C42.2083 6.78465 39.1585 11.8777 35.4443 16.5762C40.1509 12.8723 45.2508 9.83359 47.4902 11.8135C48.4212 12.6366 48.7817 13.2616 49.0293 14.4795C49.629 17.4305 44.3664 20.3499 38.7588 22.5811C44.7306 21.7091 50.7479 21.6056 51.7041 24.4609C52.0988 25.6393 52.0988 26.3607 51.7041 27.5391C50.7479 30.3944 44.7306 30.2909 38.7588 29.4189C44.3664 31.6501 49.629 34.5695 49.0293 37.5205C48.7817 38.7384 48.4212 39.3634 47.4902 40.1865C45.251 42.1662 40.1518 39.1276 35.4453 35.4238C39.1595 40.1221 42.2081 45.2154 40.2334 47.459C39.4123 48.3917 38.7884 48.7537 37.5713 49.0039C34.6013 49.6142 31.6507 44.2806 29.4014 38.6348C30.2898 44.6469 30.4141 50.7411 27.5391 51.7041C26.3607 52.0988 25.6393 52.0988 24.4609 51.7041C21.5859 50.7413 21.7102 44.6476 22.5986 38.6357C20.3493 44.2812 17.3987 49.6142 14.4287 49.0039C13.2115 48.7537 12.5877 48.3917 11.7666 47.459C9.79167 45.2154 12.8413 40.1221 16.5557 35.4238C11.849 39.1277 6.74896 42.1664 4.50977 40.1865C3.57858 39.3634 3.21828 38.7384 2.9707 37.5205C2.3712 34.5695 7.63365 31.6501 13.2412 29.4189C7.26948 30.2908 1.25211 30.3946 0.295898 27.5391C-0.0987894 26.3607 -0.098789 25.6393 0.295898 24.4609C1.25211 21.6054 7.2693 21.7092 13.2412 22.5811C7.63365 20.35 2.37085 17.4305 2.9707 14.4795C3.2181 13.2615 3.57857 12.6366 4.50977 11.8135C6.74897 9.83359 11.849 12.8723 16.5557 16.5762C12.8415 11.8779 9.79167 6.78447 11.7666 4.54102C12.5877 3.60821 13.2115 3.24632 14.4287 2.99609C17.3985 2.38559 20.3493 7.71871 22.5986 13.3643C21.7102 7.35236 21.5859 1.25869 24.4609 0.295898Z" stroke="#F63E00"/>
</svg>
